<?xml version="1.0" encoding="utf-8"?>
<!-- Generator: Adobe Illustrator 24.0.0, SVG Export Plug-In . SVG Version: 6.00 Build 0)  -->
<svg version="1.1" id="레이어_1" xmlns="http://www.w3.org/2000/svg" xmlns:xlink="http://www.w3.org/1999/xlink" x="0px"
	 y="0px" viewBox="0 0 85.04 85.04" style="enable-background:new 0 0 85.04 85.04;" xml:space="preserve">
<style type="text/css">
	.st0{fill:#FFFFFF;stroke:#FFFFFF;stroke-width:0;stroke-miterlimit:10;}
	.st1{fill:#FFFFFF;stroke:#FFFFFF;stroke-width:5;stroke-linecap:round;stroke-linejoin:round;stroke-miterlimit:10;}
</style>
<g>
	<path class="st0" d="M43.8,83.85c-1.43,0-2.58-1.16-2.58-2.58V25.81c0-1.43,1.16-2.58,2.58-2.58s2.58,1.16,2.58,2.58v55.45
		C46.38,82.69,45.23,83.85,43.8,83.85z"/>
	<g>
		<path class="st0" d="M78.15,28.4H43.82c-0.98,0-1.87-0.55-2.31-1.42c-0.44-0.87-0.35-1.92,0.23-2.7l17.08-23
			c0.49-0.65,1.25-1.04,2.07-1.04c0,0,0,0,0.01,0c0.81,0,1.58,0.38,2.07,1.03l17.25,23c0.59,0.78,0.68,1.83,0.24,2.71
			C80.03,27.84,79.13,28.4,78.15,28.4z M48.96,23.23h24.03L60.92,7.13L48.96,23.23z"/>
		<path class="st0" d="M78.13,83.85c-1.43,0-2.58-1.16-2.58-2.58V25.81c0-1.43,1.16-2.58,2.58-2.58s2.58,1.16,2.58,2.58v55.45
			C80.72,82.69,79.56,83.85,78.13,83.85z"/>
		<path class="st0" d="M78.15,62.9H43.82c-1.43,0-2.58-1.16-2.58-2.58s1.16-2.58,2.58-2.58h34.33c1.43,0,2.58,1.16,2.58,2.58
			S79.58,62.9,78.15,62.9z"/>
		<path class="st0" d="M78.15,72.1H43.82c-1.43,0-2.58-1.16-2.58-2.58c0-1.43,1.16-2.58,2.58-2.58h34.33c1.43,0,2.58,1.16,2.58,2.58
			C80.74,70.94,79.58,72.1,78.15,72.1z"/>
	</g>
	<g>
		<path class="st1" d="M20.07,69.51"/>
		<path class="st1" d="M43.8,37.48"/>
		<path class="st1" d="M25.2,80.19"/>
		<path class="st1" d="M43.8,53.06"/>
		<path class="st1" d="M31.65,74.85"/>
		<path class="st0" d="M23.46,82.77H10.33c-4.37,0-7.92-3.55-7.92-7.92s3.55-7.92,7.92-7.92h7.9c0.44,0,0.85-0.15,1.18-0.43
			l22.15-30.69l4.19,3.02L23.46,69.73c-0.08,0.11-0.17,0.22-0.27,0.32c-1.32,1.32-3.08,2.05-4.96,2.05h-7.9
			c-1.52,0-2.76,1.24-2.76,2.76s1.24,2.76,2.76,2.76h13.13c0.38,0,0.73-0.13,1.02-0.36l17.39-24.32l4.2,3.01L28.53,80.46
			c-0.08,0.12-0.17,0.22-0.27,0.32C26.97,82.07,25.27,82.77,23.46,82.77z"/>
	</g>
	<path class="st0" d="M60.96,51.93c-6.19,0-11.23-5.04-11.23-11.23c0-6.19,5.04-11.23,11.23-11.23c6.19,0,11.23,5.04,11.23,11.23
		C72.19,46.89,67.15,51.93,60.96,51.93z M60.96,34.64c-3.34,0-6.06,2.72-6.06,6.06s2.72,6.06,6.06,6.06s6.06-2.72,6.06-6.06
		S64.3,34.64,60.96,34.64z"/>
</g>
</svg>
